PathFileType	4	(X/Y/Z)	c:/Users/goper/Files/vsCode/490R/osim_files/C05/C05_ROM.trc
DataRate	CameraRate	NumFrames	NumMarkers	Units                	OrigDataRate	OrigDataStartFrame	OrigNumFrames
250.00	250.00	9	36	mm	250.0	1	3332
                Frame#	Time	LPSIS			LASIS			LTH1			LTH2			LTH3			LTH4			LLFE			LMFE			LSH1			LSH2			LSH3			LSH4			LLMAL			LMMAL			LCAL			LMTP5			LTOE			LMTP1			RPSIS			RASIS			RTH1			RTH2			RTH3			RTH4			RLFE			RMFE			RSH1			RSH2			RSH3			RSH4			RLMAL			RMMAL			RCAL			RMTP1			RTOE			RMTP5		
		X1	Y1	Z1	X2	Y2	Z2	X3	Y3	Z3	X4	Y4	Z4	X5	Y5	Z5	X6	Y6	Z6	X7	Y7	Z7	X8	Y8	Z8	X9	Y9	Z9	X10	Y10	Z10	X11	Y11	Z11	X12	Y12	Z12	X13	Y13	Z13	X14	Y14	Z14	X15	Y15	Z15	X16	Y16	Z16	X17	Y17	Z17	X18	Y18	Z18	X19	Y19	Z19	X20	Y20	Z20	X21	Y21	Z21	X22	Y22	Z22	X23	Y23	Z23	X24	Y24	Z24	X25	Y25	Z25	X26	Y26	Z26	X27	Y27	Z27	X28	Y28	Z28	X29	Y29	Z29	X30	Y30	Z30	X31	Y31	Z31	X32	Y32	Z32	X33	Y33	Z33	X34	Y34	Z34	X35	Y35	Z35	X36	Y36	Z36

1	0.00000	-415.44183	1057.39697	381.46771	-215.63393	1026.91602	327.15536	-348.59003	714.11835	257.04590	-343.47336	651.38959	260.53665	-271.62582	713.91943	256.75439	-276.32257	652.65118	260.79962	-308.19308	543.32330	272.37506	-315.37006	524.43695	391.38693	-407.39532	367.62933	259.59531	-402.48880	323.34073	261.36545	-344.56757	368.33633	243.58888	-349.38840	325.19629	248.17325	-362.01547	94.28522	278.98123	-331.19199	109.33858	360.18173	-416.65726	68.02661	332.19330	-221.89185	41.09102	244.45024	-182.40318	67.33939	302.30420	-193.42520	47.25542	350.85666	-413.16428	1062.80225	488.21448	-222.58171	1030.12915	560.88898	-362.30545	712.99353	633.56403	-357.93533	650.15332	632.73474	-288.10370	711.35345	647.50848	-294.79291	648.57141	645.62897	-312.42859	536.55701	632.65369	-319.60675	504.98975	526.39636	-400.93030	388.93686	659.47272	-396.21558	341.00525	660.74359	-340.06674	385.98883	662.74463	-343.86621	339.51587	663.02631	-365.00143	97.12515	646.43628	-343.58215	109.29856	563.61188	-427.92215	68.42281	598.27441	-211.69009	42.84570	567.07050	-191.07779	65.68347	614.97205	-238.44020	33.97172	679.73523
2	0.00400	-415.44165	1057.41907	381.79684	-215.70914	1026.89880	327.37460	-348.61395	714.12115	257.26559	-343.54938	651.38812	260.74927	-271.69797	713.90393	256.91037	-276.35858	652.65393	260.95633	-308.21909	543.33099	272.52844	-315.37823	524.42310	391.56958	-407.38446	367.63089	259.68939	-402.51453	323.32449	261.45999	-344.58893	368.35419	243.67773	-349.11017	325.51358	248.28131	-362.01038	94.30231	278.98050	-331.16782	109.34451	360.21106	-416.63242	68.00270	332.20276	-221.87462	41.07006	244.46980	-182.39792	67.31780	302.29303	-193.48329	47.19473	350.85428	-413.81647	1062.96069	488.62595	-222.60522	1030.10132	561.12756	-362.26096	712.99420	633.82257	-357.90710	650.16907	632.98932	-288.04858	711.33099	647.71460	-294.77658	648.54156	645.81696	-312.48172	536.51703	632.83282	-319.68423	504.99783	526.55634	-400.89914	388.90863	659.66010	-396.21118	340.97919	660.88861	-340.09796	385.93021	662.88635	-343.90515	339.47269	663.14795	-364.95831	97.12865	646.47260	-343.58698	109.29802	563.64215	-427.90204	68.40849	598.30872	-211.67419	42.83083	567.07581	-191.08679	65.65917	614.98297	-238.41776	33.97431	679.74115
3	0.00800	-415.40186	1057.42126	382.10202	-215.80571	1026.87195	327.59116	-348.70047	714.09784	257.47800	-343.57727	651.36627	260.92218	-271.78943	713.92090	257.09381	-276.44550	652.65955	261.07434	-308.29224	543.32379	272.65082	-315.43515	524.43719	391.71570	-407.41019	367.64722	259.78784	-402.49130	323.31076	261.54605	-344.61557	368.38474	243.76048	-349.41177	325.23389	248.32841	-362.00012	94.31525	278.97513	-331.01761	109.37054	360.22220	-416.64365	68.04624	332.20868	-221.89044	41.07906	244.45641	-182.40227	67.31094	302.29422	-193.52762	47.16138	350.86441	-413.82455	1063.02148	488.91254	-222.59431	1030.08398	561.33698	-362.25867	713.04474	634.08191	-357.92575	650.21783	633.24030	-288.02280	711.35815	647.91138	-294.79303	648.54913	645.98871	-312.52444	536.52728	632.97345	-319.73569	505.04294	526.68329	-400.89319	388.92227	659.83661	-396.21402	340.98669	661.01294	-340.11139	385.93341	662.99713	-343.91898	339.45789	663.24115	-364.97415	97.15096	646.48700	-343.58328	109.29248	563.64612	-427.91397	68.41673	598.30188	-211.68050	42.82426	567.05432	-191.08911	65.66116	614.97736	-238.41768	33.99525	679.74097
4	0.01200	-415.34488	1057.43420	382.41422	-215.87718	1026.87317	327.79099	-348.76251	714.06970	257.67010	-343.64465	651.34113	261.11243	-271.87936	713.93060	257.24094	-276.51349	652.65448	261.19446	-308.35159	543.31702	272.76007	-315.45178	524.46722	391.85184	-407.39838	367.66006	259.86905	-402.51047	323.36597	261.63440	-344.63907	368.39337	243.83456	-349.43506	325.25842	248.40065	-361.99460	94.30428	278.98538	-331.01968	109.38213	360.22159	-416.68073	68.05573	332.19565	-221.89523	41.06126	244.44305	-182.41789	67.30009	302.26349	-193.50409	47.17088	350.82535	-413.83252	1063.07715	489.23959	-222.59520	1030.07483	561.50964	-362.23944	713.06390	634.33087	-357.95792	650.24292	633.45532	-287.99759	711.38983	648.08777	-294.78806	648.55768	646.17371	-312.55237	536.55725	633.12091	-319.82144	505.08105	526.79602	-400.91336	388.92551	659.96173	-396.24838	340.99109	661.13403	-340.14990	385.91574	663.09735	-343.93692	339.44992	663.31934	-364.98615	97.16553	646.48889	-343.57446	109.29440	563.65125	-427.93732	68.43279	598.30225	-211.69240	42.80972	567.03998	-191.07799	65.65642	614.93225	-238.39743	34.00732	679.72577
5	0.01600	-416.11749	1057.61523	382.48624	-215.96297	1026.87061	328.00186	-348.86078	714.06055	257.86951	-343.74957	651.33923	261.30884	-272.00476	713.89862	257.44092	-276.59088	652.65167	261.34909	-308.44748	543.30103	272.91135	-315.51727	524.45422	392.01077	-407.43240	367.65585	259.94095	-402.52518	323.35312	261.70416	-344.69760	368.40311	243.93033	-349.51437	325.24823	248.47180	-362.02267	94.29232	278.97516	-331.21109	109.40168	360.25394	-416.66013	68.03809	332.17374	-221.92032	41.04200	244.43468	-182.41197	67.30298	302.25851	-193.53989	47.15360	350.79495	-413.87979	1063.12610	489.57919	-222.61203	1030.06702	561.73914	-362.17645	713.05493	634.59229	-358.00500	650.25476	633.67627	-287.97775	711.38593	648.29895	-294.78571	648.56018	646.37531	-312.60846	536.56799	633.26160	-319.99609	505.00592	526.97943	-400.97440	388.91153	660.09845	-396.29559	340.96631	661.25787	-340.19208	385.88599	663.22009	-343.98175	339.44473	663.40649	-365.01428	97.16994	646.50928	-343.59244	109.27869	563.66107	-427.94666	68.39427	598.27869	-211.76433	42.78231	567.03845	-191.12206	65.63233	614.93280	-238.44003	34.01580	679.71716
6	0.02000	-416.11868	1057.57800	382.76447	-216.02275	1026.85449	328.19492	-348.93164	714.04871	258.04367	-343.83997	651.31049	261.47928	-272.04111	713.91205	257.59927	-276.65927	652.64459	261.49976	-308.54694	543.28394	273.06079	-315.51740	524.45111	392.15942	-407.46063	367.63751	260.01880	-402.55002	323.33926	261.77902	-344.77896	368.40845	244.01073	-349.54044	325.24496	248.53218	-362.02542	94.27871	278.97083	-331.22058	109.40677	360.26294	-416.65680	68.02620	332.17996	-221.94765	41.03185	244.41956	-182.47209	67.27573	302.24979	-193.83923	46.90525	350.73044	-413.88022	1063.13757	489.92267	-222.60362	1030.05774	561.94830	-362.16144	713.03076	634.79193	-358.00443	650.26562	633.86707	-287.96664	711.41150	648.48938	-294.77136	648.56647	646.56348	-312.60339	536.59741	633.40979	-319.91101	505.09579	527.05188	-401.02283	388.88443	660.19019	-396.35324	340.95718	661.35181	-340.22934	385.87869	663.31647	-343.99213	339.40689	663.47778	-365.06195	97.16695	646.50732	-343.62903	109.25484	563.65674	-427.92624	68.37734	598.23633	-211.79144	42.77359	567.02850	-191.13078	65.64658	614.90851	-238.46892	34.00872	679.70837
7	0.02400	-416.17120	1057.54321	383.01712	-216.09402	1026.85437	328.38882	-349.05746	714.06287	258.20914	-343.91190	651.29944	261.66708	-272.12997	713.93243	257.73703	-276.76755	652.66510	261.64871	-308.64243	543.28064	273.19785	-315.56403	524.41931	392.27182	-407.51535	367.64642	260.12003	-402.56421	323.35715	261.83194	-344.83749	368.41681	244.09480	-349.57855	325.28723	248.60782	-362.06165	94.28488	278.96512	-331.26788	109.39098	360.25507	-416.67197	67.98556	332.16077	-221.96490	41.05786	244.40594	-182.48882	67.27262	302.24158	-193.86694	46.91471	350.70355	-413.82553	1063.10535	490.23114	-222.54153	1030.08008	562.13959	-362.16074	713.02216	634.98407	-358.01169	650.25458	634.03204	-287.97757	711.39771	648.67615	-294.77664	648.57166	646.71075	-312.64026	536.59509	633.55457	-320.13159	505.12659	527.24768	-401.07758	388.84161	660.30035	-396.40128	340.93213	661.44574	-340.25800	385.86032	663.41595	-344.02802	339.39703	663.56433	-365.11316	97.14091	646.51282	-343.69611	109.26215	563.66217	-427.93762	68.33875	598.22858	-211.83353	42.76394	567.00891	-191.14069	65.66435	614.89606	-238.49945	34.01729	679.69360
8	0.02800	-416.27042	1057.54993	383.30124	-216.13100	1026.86328	328.61557	-349.16013	714.08105	258.40826	-343.98117	651.31622	261.86810	-272.17401	713.95380	257.90018	-276.84601	652.68524	261.83405	-308.68460	543.29407	273.35712	-315.52927	524.44531	392.38882	-407.58801	367.67856	260.22604	-402.61609	323.40173	261.93903	-344.88947	368.42947	244.19556	-349.64209	325.28238	248.70984	-362.06232	94.27999	278.97324	-331.27188	109.37930	360.25403	-416.67566	67.96694	332.15216	-221.98433	41.05544	244.41254	-182.51575	67.26675	302.25446	-193.87112	46.93092	350.71365	-413.85995	1063.10596	490.45081	-222.50391	1030.08740	562.35706	-362.18936	712.99286	635.19745	-357.98291	650.24261	634.20526	-287.98672	711.36694	648.86639	-294.74432	648.56293	646.87744	-312.68289	536.61737	633.72009	-320.14584	505.16455	527.38782	-401.11304	388.79034	660.38574	-396.44864	340.88196	661.55292	-340.29422	385.83057	663.54315	-344.02921	339.37241	663.63953	-365.12927	97.11205	646.52264	-343.70093	109.25674	563.69617	-427.96457	68.32470	598.24146	-211.84320	42.75498	567.02521	-191.01637	65.74454	614.94427	-238.49786	34.01604	679.68677
9	0.03200	-416.38940	1057.59998	383.62579	-216.19421	1026.88501	328.83823	-349.22232	714.14044	258.62180	-344.06912	651.37207	262.07654	-272.27686	713.94568	258.05954	-276.94461	652.71326	262.02670	-308.73236	543.33374	273.54037	-315.55908	524.40179	392.53809	-407.63953	367.71600	260.35910	-402.65143	323.42816	262.03433	-344.95459	368.43817	244.31108	-349.69370	325.30246	248.79285	-362.07275	94.29719	278.98053	-331.28113	109.37577	360.27307	-416.70007	67.99330	332.17230	-221.95013	41.08331	244.41847	-182.52536	67.26650	302.27338	-193.84926	46.95428	350.73087	-413.93115	1063.12854	490.67657	-222.42812	1030.12256	562.59692	-362.22067	712.99310	635.42389	-357.99908	650.24377	634.38629	-288.02109	711.33044	649.03149	-294.76300	648.55872	647.04675	-312.71997	536.62250	633.85834	-320.21136	505.19244	527.53180	-401.16757	388.77737	660.49622	-396.52551	340.86224	661.65857	-340.29514	385.83340	663.65887	-344.07590	339.35425	663.74536	-365.14758	97.10921	646.54614	-343.72833	109.27039	563.71204	-428.01862	68.37960	598.25940	-211.86539	42.79081	567.04810	-191.14832	65.70352	614.92358	-238.52319	34.02560	679.69965
